<?xml version="1.0" encoding="UTF-8"?>
<svg id="_圖層_1" data-name="圖層_1" xmlns="http://www.w3.org/2000/svg" version="1.1" xmlns:xlink="http://www.w3.org/1999/xlink" viewBox="0 0 48 46">
  <!-- Generator: Adobe Illustrator 29.8.1, SVG Export Plug-In . SVG Version: 2.1.1 Build 2)  -->
  <defs>
    <style>
      .st0 {
        fill: url(#_未命名漸層_96);
      }

      .st1 {
        fill: url(#_未命名漸層_91);
      }

      .st2 {
        fill: url(#_未命名漸層_9);
      }

      .st3 {
        fill: url(#_未命名漸層_92);
      }

      .st4 {
        fill: url(#_未命名漸層_93);
      }

      .st5 {
        fill: url(#_未命名漸層_94);
      }

      .st6 {
        fill: url(#_未命名漸層_95);
      }
    </style>
    <linearGradient id="_未命名漸層_9" data-name="未命名漸層 9" x1="13.4" y1="45" x2="34.7" y2="23.8" gradientUnits="userSpaceOnUse">
      <stop offset="0" stop-color="#39a2ca"/>
      <stop offset="1" stop-color="aqua"/>
    </linearGradient>
    <linearGradient id="_未命名漸層_91" data-name="未命名漸層 9" x1="10" y1="31.9" x2="31.9" y2="10" xlink:href="#_未命名漸層_9"/>
    <linearGradient id="_未命名漸層_92" data-name="未命名漸層 9" x1="16.7" y1="32.2" x2="37.5" y2="11.3" xlink:href="#_未命名漸層_9"/>
    <linearGradient id="_未命名漸層_93" data-name="未命名漸層 9" x1="5.2" y1="33.2" x2="13.1" y2="25.3" xlink:href="#_未命名漸層_9"/>
    <linearGradient id="_未命名漸層_94" data-name="未命名漸層 9" x1=".4" y1="33" x2="7.8" y2="25.5" xlink:href="#_未命名漸層_9"/>
    <linearGradient id="_未命名漸層_95" data-name="未命名漸層 9" x1="40.2" y1="32.9" x2="47.6" y2="25.5" xlink:href="#_未命名漸層_9"/>
    <linearGradient id="_未命名漸層_96" data-name="未命名漸層 9" x1="33.4" y1="30.8" x2="39.1" y2="25.1" xlink:href="#_未命名漸層_9"/>
  </defs>
  <g>
    <path class="st2" d="M24.1,13.2l5.6,11-1,.7h-.2c0,0-4.7-8.5-4.7-8.5l-11.2,21.7,2.5-1.1,1.5-2.7c3.9-.7,7.7-1.9,11.1-3.9l3.9-2.7,6.8,13.3-6.7-2.8-3.5-6.3c-3.3,1.8-6.9,3.1-10.6,3.8l-1.5,2.6-6.7,2.8,14.6-27.8ZM31.2,29.9l-1.6,1,3.3,6.1,2.6,1.1-4.3-8.2Z"/>
    <path class="st1" d="M11.8,22c-.1-.7-.7-1.2-1.4-1.4s-.7.1-.7-.2c.1-2,1.5-4.9,2.7-6.5,5.3-7.2,16.2-7.8,22.2-1.1s2.5,5.1.8,8.3c-3.3,6.3-11,10.3-17.9,11.4l6.3-12.2.3.2,2.9,5.6-1.2.8c-.3-.2-1.5-2.8-1.8-3.3s0-.2-.2-.1l-3.5,6.8c0,.2,0,.2.2.1,5.3-1.2,12.7-6.1,14.3-11.6s.2-3-1-4.5c-6.8-8.1-19.9-4.9-22.4,5.2h0c.9.6,1.6,1.4,1.7,2.4.3,2.9-.3,6.1,0,9l-1.5,2.9v-11.6Z"/>
    <path class="st3" d="M38,36.3v-14.2l2.1.9c0-7.4-4.8-14-11.9-15.9-9.8-2.6-19.2,4.2-20.3,14l-1.4.9c0-3,1-6.1,2.6-8.6C18.2-1.4,40.4,4.5,41.6,21.8c0,.6-.1,1.7,0,2.2s.9,1.2,1.2,1.6c2.4,4.2,0,9.7-4.8,10.7ZM39.5,34.2c3.7-2.3,3.6-7.6,0-9.9v9.9Z"/>
    <path class="st4" d="M10,36.3c-7.6-1.8-7.5-12.4,0-14.2v14.2ZM8.6,24.3c-.5,0-1.1.6-1.4,1-2.3,2.7-1.7,7,1.4,8.8v-9.8Z"/>
    <path class="st5" d="M4.2,36.6c-.2.1-1-.9-1.1-1.1C0,31.4.5,25.5,4.1,21.8l1,1c-.3.5-.7.9-1,1.4-2.3,3.5-2,8.4,1.1,11.3l-.8,1.1Z"/>
    <path class="st6" d="M43.9,21.8c4,3.9,4.1,11,0,14.9-.2-.2-1-.8-.9-1.1,3.3-3.6,3.2-9.1,0-12.6l.9-1.1Z"/>
    <path class="st0" d="M36.3,33.6c-.2-.2-.4-.6-.6-.9-.3-.5-.9-1.6-.9-2.1-.2-2,.2-4.3,0-6.3l1.5-2.2v11.4Z"/>
  </g>
  <image width="2816" height="1536" transform="translate(-210.7 104.8) scale(0)" xlink:href="C:\Users\User\Downloads\Gemini_Generated_Image_nnbtxbnnbtxbnnbt.png"/>
</svg>