<?xml version="1.0" encoding="UTF-8"?>
<svg id="_圖層_1" data-name="圖層_1" xmlns="http://www.w3.org/2000/svg" version="1.1" xmlns:xlink="http://www.w3.org/1999/xlink" viewBox="0 0 1200 1200">
  <!-- Generator: Adobe Illustrator 29.8.1, SVG Export Plug-In . SVG Version: 2.1.1 Build 2)  -->
  <defs>
    <style>
      .st0 {
        fill: url(#_未命名漸層_23);
      }

      .st1 {
        fill: url(#_未命名漸層_229);
      }

      .st2 {
        fill: url(#_未命名漸層_211);
      }

      .st3 {
        fill: url(#_未命名漸層_233);
      }

      .st4 {
        fill: url(#_未命名漸層_220);
      }

      .st5 {
        fill: url(#_未命名漸層_25);
      }

      .st6 {
        fill: url(#_未命名漸層_212);
      }

      .st7 {
        fill: url(#_未命名漸層_21);
      }

      .st8 {
        fill: url(#_未命名漸層_223);
      }

      .st9 {
        fill: url(#_未命名漸層_26);
      }

      .st10 {
        fill: url(#_未命名漸層_2);
      }

      .st11 {
        fill: url(#_未命名漸層_215);
      }

      .st12 {
        fill: url(#_未命名漸層_235);
      }

      .st13 {
        fill: url(#_未命名漸層_230);
      }

      .st14 {
        fill: url(#_未命名漸層_226);
      }

      .st15 {
        fill: url(#_未命名漸層_213);
      }

      .st16 {
        fill: url(#_未命名漸層_210);
      }

      .st17 {
        fill: url(#_未命名漸層_216);
      }

      .st18 {
        fill: url(#_未命名漸層_231);
      }

      .st19 {
        fill: url(#_未命名漸層_214);
      }

      .st20 {
        fill: url(#_未命名漸層_219);
      }

      .st21 {
        fill: url(#_未命名漸層_234);
      }

      .st22 {
        fill: url(#_未命名漸層_218);
      }

      .st23 {
        fill: url(#_未命名漸層_232);
      }

      .st24 {
        fill: url(#_未命名漸層_217);
      }

      .st25 {
        fill: url(#_未命名漸層_29);
      }

      .st26 {
        fill: url(#_未命名漸層_24);
      }

      .st27 {
        fill: url(#_未命名漸層_28);
      }

      .st28 {
        fill: url(#_未命名漸層_224);
      }

      .st29 {
        fill: url(#_未命名漸層_22);
      }

      .st30 {
        fill: url(#_未命名漸層_228);
      }

      .st31 {
        fill: url(#_未命名漸層_238);
      }

      .st32 {
        fill: url(#_未命名漸層_225);
      }

      .st33 {
        fill: url(#_未命名漸層_222);
      }

      .st34 {
        fill: url(#_未命名漸層_27);
      }

      .st35 {
        fill: url(#_未命名漸層_237);
      }

      .st36 {
        fill: url(#_未命名漸層_239);
      }

      .st37 {
        fill: url(#_未命名漸層_236);
      }

      .st38 {
        fill: url(#_未命名漸層_221);
      }

      .st39 {
        fill: url(#_未命名漸層_227);
      }
    </style>
    <linearGradient id="_未命名漸層_2" data-name="未命名漸層 2" x1="440.7" y1="819.4" x2="761.6" y2="498.5" gradientUnits="userSpaceOnUse">
      <stop offset="0" stop-color="#3b9abf"/>
      <stop offset="1" stop-color="#72c8d5"/>
    </linearGradient>
    <linearGradient id="_未命名漸層_21" data-name="未命名漸層 2" x1="389.1" y1="620.8" x2="719.6" y2="290.3" xlink:href="#_未命名漸層_2"/>
    <linearGradient id="_未命名漸層_22" data-name="未命名漸層 2" x1="489.7" y1="625.2" x2="805.2" y2="309.7" xlink:href="#_未命名漸層_2"/>
    <linearGradient id="_未命名漸層_23" data-name="未命名漸層 2" x1="316.3" y1="640.7" x2="436.2" y2="520.8" xlink:href="#_未命名漸層_2"/>
    <linearGradient id="_未命名漸層_24" data-name="未命名漸層 2" x1="243.2" y1="637.4" x2="355.6" y2="525" xlink:href="#_未命名漸層_2"/>
    <linearGradient id="_未命名漸層_25" data-name="未命名漸層 2" x1="845.6" y1="636.9" x2="958.1" y2="524.4" xlink:href="#_未命名漸層_2"/>
    <linearGradient id="_未命名漸層_26" data-name="未命名漸層 2" x1="742.9" y1="604.5" x2="829.5" y2="517.9" xlink:href="#_未命名漸層_2"/>
    <linearGradient id="_未命名漸層_27" data-name="未命名漸層 2" x1="139.8" y1="960.4" x2="166.8" y2="933.4" xlink:href="#_未命名漸層_2"/>
    <linearGradient id="_未命名漸層_28" data-name="未命名漸層 2" x1="183.4" y1="966.3" x2="210.5" y2="939.2" xlink:href="#_未命名漸層_2"/>
    <linearGradient id="_未命名漸層_29" data-name="未命名漸層 2" x1="221.2" y1="964.5" x2="249.3" y2="936.4" xlink:href="#_未命名漸層_2"/>
    <linearGradient id="_未命名漸層_210" data-name="未命名漸層 2" x1="260.6" y1="969.4" x2="298.9" y2="931.1" xlink:href="#_未命名漸層_2"/>
    <linearGradient id="_未命名漸層_211" data-name="未命名漸層 2" x1="308.4" y1="960.4" x2="328.7" y2="940.1" xlink:href="#_未命名漸層_2"/>
    <linearGradient id="_未命名漸層_212" data-name="未命名漸層 2" x1="336.6" y1="961.5" x2="366" y2="932.1" xlink:href="#_未命名漸層_2"/>
    <linearGradient id="_未命名漸層_213" data-name="未命名漸層 2" x1="383.1" y1="969.4" x2="421.3" y2="931.1" xlink:href="#_未命名漸層_2"/>
    <linearGradient id="_未命名漸層_214" data-name="未命名漸層 2" x1="456" y1="964.6" x2="484.1" y2="936.5" xlink:href="#_未命名漸層_2"/>
    <linearGradient id="_未命名漸層_215" data-name="未命名漸層 2" x1="498.5" y1="963.9" x2="525.8" y2="936.6" xlink:href="#_未命名漸層_2"/>
    <linearGradient id="_未命名漸層_216" data-name="未命名漸層 2" x1="544.1" y1="961.5" x2="573.5" y2="932.1" xlink:href="#_未命名漸層_2"/>
    <linearGradient id="_未命名漸層_217" data-name="未命名漸層 2" x1="588.4" y1="967.2" x2="622.4" y2="933.2" xlink:href="#_未命名漸層_2"/>
    <linearGradient id="_未命名漸層_218" data-name="未命名漸層 2" x1="633.9" y1="964.5" x2="663.1" y2="935.3" xlink:href="#_未命名漸層_2"/>
    <linearGradient id="_未命名漸層_219" data-name="未命名漸層 2" x1="700.8" y1="964.5" x2="728.9" y2="936.4" xlink:href="#_未命名漸層_2"/>
    <linearGradient id="_未命名漸層_220" data-name="未命名漸層 2" x1="734" y1="967.5" x2="767.9" y2="933.6" xlink:href="#_未命名漸層_2"/>
    <linearGradient id="_未命名漸層_221" data-name="未命名漸層 2" x1="770.7" y1="960.4" x2="797.7" y2="933.4" xlink:href="#_未命名漸層_2"/>
    <linearGradient id="_未命名漸層_222" data-name="未命名漸層 2" x1="812.4" y1="964.5" x2="840.4" y2="936.4" xlink:href="#_未命名漸層_2"/>
    <linearGradient id="_未命名漸層_223" data-name="未命名漸層 2" x1="848.7" y1="966.3" x2="875.8" y2="939.2" xlink:href="#_未命名漸層_2"/>
    <linearGradient id="_未命名漸層_224" data-name="未命名漸層 2" x1="882.5" y1="960.4" x2="902.8" y2="940.1" xlink:href="#_未命名漸層_2"/>
    <linearGradient id="_未命名漸層_225" data-name="未命名漸層 2" x1="907.5" y1="964.5" x2="935.5" y2="936.4" xlink:href="#_未命名漸層_2"/>
    <linearGradient id="_未命名漸層_226" data-name="未命名漸層 2" x1="944.7" y1="967.2" x2="978.7" y2="933.2" xlink:href="#_未命名漸層_2"/>
    <linearGradient id="_未命名漸層_227" data-name="未命名漸層 2" x1="996.7" y1="964.1" x2="1024.4" y2="936.5" xlink:href="#_未命名漸層_2"/>
    <linearGradient id="_未命名漸層_228" data-name="未命名漸層 2" x1="1031.2" y1="964.5" x2="1059.2" y2="936.4" xlink:href="#_未命名漸層_2"/>
    <linearGradient id="_未命名漸層_229" data-name="未命名漸層 2" x1="75" y1="900.9" x2="142.6" y2="833.3" xlink:href="#_未命名漸層_2"/>
    <linearGradient id="_未命名漸層_230" data-name="未命名漸層 2" x1="175" y1="877" x2="243" y2="808.9" xlink:href="#_未命名漸層_2"/>
    <linearGradient id="_未命名漸層_231" data-name="未命名漸層 2" x1="271.2" y1="884.7" x2="339.5" y2="816.4" xlink:href="#_未命名漸層_2"/>
    <linearGradient id="_未命名漸層_232" data-name="未命名漸層 2" x1="368.2" y1="876.1" x2="417.8" y2="826.4" xlink:href="#_未命名漸層_2"/>
    <linearGradient id="_未命名漸層_233" data-name="未命名漸層 2" x1="442.7" y1="882" x2="504.2" y2="820.5" xlink:href="#_未命名漸層_2"/>
    <linearGradient id="_未命名漸層_234" data-name="未命名漸層 2" x1="590.5" y1="899.2" x2="652.6" y2="837.2" xlink:href="#_未命名漸層_2"/>
    <linearGradient id="_未命名漸層_235" data-name="未命名漸層 2" x1="683.8" y1="876.3" x2="749" y2="811.1" xlink:href="#_未命名漸層_2"/>
    <linearGradient id="_未命名漸層_236" data-name="未命名漸層 2" x1="780" y1="886.9" x2="840" y2="826.9" xlink:href="#_未命名漸層_2"/>
    <linearGradient id="_未命名漸層_237" data-name="未命名漸層 2" x1="876.7" y1="881.4" x2="937.2" y2="821" xlink:href="#_未命名漸層_2"/>
    <linearGradient id="_未命名漸層_238" data-name="未命名漸層 2" x1="974.5" y1="886.9" x2="1034.5" y2="826.9" xlink:href="#_未命名漸層_2"/>
    <linearGradient id="_未命名漸層_239" data-name="未命名漸層 2" x1="1064.6" y1="899.2" x2="1126.6" y2="837.2" xlink:href="#_未命名漸層_2"/>
  </defs>
  <g>
    <path class="st10" d="M601.9,338.9l85,166.5-14.9,11.2-2.9-1.5-70.4-127.7-169.8,328.2,38.4-16.6,22.6-41.3c58.7-9.9,115.9-29.1,167.5-58.8l59.3-40.1,103.5,200.5-101.7-43-52.8-96c-50.6,26.5-104.3,47-160.7,57.3l-22.7,38.7-101.8,42.9,221.5-420.4ZM708.6,591.1l-24.2,15.3,50.1,92.2,38.8,16.9-64.7-124.5Z"/>
    <path class="st7" d="M416,472.3c-1.5-10.7-10.4-18.9-20.6-21.4-3.8-.9-10.4,1.6-10.1-2.8,1.9-30.4,22.9-73.8,40.7-98.4,79.5-109.6,244.5-117.6,335.2-17.3,37.7,41.7,38,76.5,12.4,125.6-50.1,95.9-166.6,156-270.3,171.9l95.4-184.3,4.6,2.7,43.7,85.1-17.6,11.7c-4.1-2.4-22.1-42.9-27.1-50.6-1-1.6.2-2.9-3.6-2.1l-53.4,102.7c-.6,3.4,1.3,2.6,3.7,2.1,79.9-18.2,192.4-92.9,216.2-175.1,8.3-28.8,3.7-46.1-15.4-68.8-103.1-122.3-300.6-74.4-338.7,78.6l.2,2c13.8,6.6,24.3,19.4,25.7,35,3.9,43.4-4.1,91.8,1.2,135.5l-22.3,43.2v-175.4Z"/>
    <path class="st29" d="M812.1,688.1v-215l32.3,12.9c1.1-111.8-72.1-211.7-180.4-240.8-147.6-39.6-290.1,62.8-306.4,212.3l-21.7,13.9c-.8-45.4,15.2-92.5,38.9-130.8,138-222.6,473.9-133.4,492.2,128.4.6,9.2-1.8,26.1.4,33.6,1,3.4,14.3,18.3,17.7,24.3,35.9,64.2-1.2,146.4-73,161.2ZM834.8,655.8c55.7-34.3,54.8-115.5,0-150.4v150.4Z"/>
    <path class="st0" d="M388.5,688.1c-114.3-26.8-113.6-187.4,0-215v215ZM367.5,507c-7.7,1.1-15.9,9.6-21,15.4-35.4,40.8-26.1,106.3,21,133.3v-148.7Z"/>
    <path class="st26" d="M301.2,692.9c-2.8,2-14.7-13.5-16.8-16.3-47.9-63.2-40.2-152.2,14.4-208.4l15,15.3c-4.6,7.5-11,13.6-15.8,21-35.2,53.5-29.5,126.3,16.1,171.6l-12.8,16.7Z"/>
    <path class="st5" d="M901.9,468.2c61.2,59.4,62.1,165.9,0,224.7-2.9-3.6-14.4-12.1-13.5-16.7,50.5-53.9,49.2-137.2,0-191.3l13.5-16.6Z"/>
    <path class="st9" d="M786.3,647.7c-3.7-2.9-6.6-8.7-8.9-12.9-4.3-7.7-13-23.5-13.8-31.5-3-30,2.3-64.9.2-95.4l22.5-33.2v173Z"/>
  </g>
  <g>
    <g>
      <path class="st34" d="M152.3,954.6v13.6h-4.7v-35.9h11c4.3,0,7.6.9,9.9,2.8,2.3,1.9,3.5,4.5,3.5,7.9s-1.3,6.2-3.9,8.4c-2.6,2.2-6.1,3.3-10.5,3.3h-5.3ZM152.3,936.1v14.7h4.9c3.2,0,5.7-.7,7.4-2s2.5-3.2,2.5-5.6c0-4.7-3.1-7.1-9.3-7.1h-5.5Z"/>
      <path class="st27" d="M213.8,968.2h-5.6l-6.7-10.1c-.6-.9-1.2-1.7-1.8-2.4-.6-.7-1.2-1.2-1.8-1.6-.6-.4-1.3-.7-1.9-.9-.7-.2-1.5-.3-2.3-.3h-3.8v15.3h-4.7v-35.9h11.9c1.7,0,3.3.2,4.8.6,1.5.4,2.8,1,3.8,1.8,1.1.8,1.9,1.8,2.5,3,.6,1.2.9,2.6.9,4.2s-.2,2.4-.6,3.4-1,2-1.8,2.8c-.8.8-1.7,1.5-2.8,2.1-1.1.6-2.3,1-3.7,1.3h0c.7.4,1.2.7,1.7,1,.5.3,1,.7,1.4,1.2s.9,1,1.3,1.6c.4.6.9,1.3,1.5,2.1l7.5,10.8ZM189.9,936.1v13h6.3c1.2,0,2.2-.2,3.2-.5,1-.3,1.8-.8,2.6-1.4.7-.6,1.3-1.3,1.7-2.2.4-.9.6-1.8.6-2.9,0-1.9-.7-3.4-2.1-4.5-1.4-1.1-3.4-1.6-6-1.6h-6.4Z"/>
      <path class="st25" d="M246.1,968.2h-21.1v-35.9h20.2v3.8h-15.6v11.9h14.4v3.8h-14.4v12.6h16.5v3.8Z"/>
      <path class="st16" d="M300.1,968.2h-4.6v-24.1c0-1.9.1-4.2.4-7h-.1c-.4,1.6-.8,2.8-1.2,3.5l-13.6,27.6h-2.3l-13.6-27.4c-.4-.8-.8-2-1.2-3.7h-.1c.1,1.4.2,3.8.2,7v24h-4.5v-35.9h6.2l12.2,25c.9,1.9,1.6,3.4,1.8,4.3h.2c.8-2,1.4-3.4,1.9-4.4l12.5-24.9h5.8v35.9Z"/>
      <path class="st2" d="M320.9,968.2h-4.7v-35.9h4.7v35.9Z"/>
      <path class="st6" d="M366.2,953.7c0,10.1-5.1,15.1-15.1,15.1s-14.5-4.8-14.5-14.5v-21.9h4.7v21.7c0,7.4,3.4,11,10.3,11s10-3.6,10-10.7v-22h4.7v21.4Z"/>
      <path class="st15" d="M422.5,968.2h-4.6v-24.1c0-1.9.1-4.2.4-7h-.1c-.4,1.6-.8,2.8-1.2,3.5l-13.6,27.6h-2.3l-13.6-27.4c-.4-.8-.8-2-1.2-3.7h-.1c.1,1.4.2,3.8.2,7v24h-4.5v-35.9h6.2l12.2,25c.9,1.9,1.6,3.4,1.8,4.3h.2c.8-2,1.4-3.4,1.9-4.4l12.5-24.9h5.8v35.9Z"/>
      <path class="st19" d="M458.1,966.7v-5c.6.5,1.4,1,2.3,1.3.9.4,1.8.7,2.8,1s1.9.5,2.9.6c1,.1,1.9.2,2.7.2,2.9,0,5-.5,6.4-1.4,1.4-1,2.1-2.3,2.1-4.1s-.2-1.8-.7-2.5c-.5-.7-1.1-1.4-2-2s-1.8-1.2-3-1.7-2.4-1.1-3.7-1.7c-1.4-.6-2.7-1.3-3.9-1.9-1.2-.6-2.3-1.4-3.1-2.2-.9-.8-1.6-1.7-2.1-2.7-.5-1-.8-2.2-.8-3.5s.4-3.1,1.2-4.3c.8-1.2,1.8-2.2,3.1-3,1.3-.8,2.8-1.4,4.4-1.8,1.7-.4,3.3-.6,5.1-.6,3.9,0,6.8.4,8.6,1.3v4.7c-2.4-1.5-5.4-2.2-9.1-2.2s-2,0-3.1.3c-1,.2-1.9.5-2.7.9-.8.4-1.4,1-1.9,1.7-.5.7-.8,1.5-.8,2.5s.2,1.7.6,2.4c.4.7.9,1.3,1.7,1.8.7.6,1.6,1.1,2.7,1.6,1.1.5,2.3,1.1,3.7,1.7,1.4.6,2.8,1.3,4.1,2,1.3.7,2.4,1.5,3.4,2.3,1,.9,1.7,1.8,2.3,2.8s.8,2.2.8,3.6-.4,3.3-1.2,4.5c-.8,1.2-1.8,2.2-3.1,3s-2.8,1.3-4.5,1.7c-1.7.3-3.5.5-5.4.5s-1.4,0-2.3-.1-1.9-.2-2.8-.4c-1-.2-1.9-.4-2.7-.7-.9-.3-1.6-.5-2.1-.9Z"/>
      <path class="st11" d="M512,968.8c-5.7,0-10.2-1.7-13.6-5-3.4-3.4-5.1-7.7-5.1-13.1s1.7-10.4,5.2-13.8c3.5-3.4,8.2-5.2,14.1-5.2s9.9,1.7,13.3,5c3.4,3.3,5,7.7,5,13.1s-1.7,10.5-5.2,13.9-8.1,5.1-13.8,5.1ZM512.3,935.5c-4.2,0-7.6,1.4-10.2,4.1-2.6,2.7-3.9,6.3-3.9,10.7s1.3,8,3.8,10.7c2.5,2.7,5.9,4,10,4s7.8-1.3,10.3-3.9c2.5-2.6,3.8-6.2,3.8-10.8s-1.2-8.4-3.7-11c-2.4-2.6-5.8-3.9-10.1-3.9Z"/>
      <path class="st17" d="M573.7,953.7c0,10.1-5.1,15.1-15.2,15.1s-14.5-4.8-14.5-14.5v-21.9h4.7v21.7c0,7.4,3.4,11,10.3,11s10-3.6,10-10.7v-22h4.7v21.4Z"/>
      <path class="st24" d="M621.5,968.2h-5.7l-20.5-28.6c-.5-.7-.9-1.5-1.3-2.3h-.2c.1.8.2,2.4.2,4.9v25.9h-4.7v-35.9h6.1l20,28.1c.8,1.2,1.4,2,1.6,2.4h.1c-.2-1-.3-2.8-.3-5.3v-25.3h4.7v35.9Z"/>
      <path class="st22" d="M637.6,968.2v-35.9h11c14,0,21.1,5.8,21.1,17.5s-1.9,10-5.9,13.3c-3.9,3.4-9.1,5-15.7,5h-10.6ZM642.3,936.1v28.3h5.9c5.2,0,9.3-1.3,12.2-3.8,2.9-2.5,4.4-6.1,4.4-10.7,0-9.2-5.4-13.8-16.3-13.8h-6.2Z"/>
      <path class="st20" d="M725.6,968.2h-21.1v-35.9h20.2v3.8h-15.6v11.9h14.4v3.8h-14.4v12.6h16.5v3.8Z"/>
      <path class="st4" d="M766.7,968.2h-5.7l-9.2-13.7c-.3-.4-.6-1-.9-1.8h-.1c-.2.4-.5,1-.9,1.8l-9.5,13.7h-5.7l13.3-18-12.3-17.8h5.7l8.1,12.6c.5.8,1,1.7,1.4,2.5h.1c.6-1.1,1.1-2,1.6-2.6l8.5-12.5h5.4l-12.5,17.8,12.7,18.1Z"/>
      <path class="st38" d="M783.2,954.6v13.6h-4.7v-35.9h11c4.3,0,7.6.9,9.9,2.8,2.3,1.9,3.5,4.5,3.5,7.9s-1.3,6.2-3.9,8.4c-2.6,2.2-6.1,3.3-10.5,3.3h-5.3ZM783.2,936.1v14.7h4.9c3.2,0,5.7-.7,7.4-2s2.5-3.2,2.5-5.6c0-4.7-3.1-7.1-9.3-7.1h-5.5Z"/>
      <path class="st33" d="M837.2,968.2h-21.1v-35.9h20.2v3.8h-15.6v11.9h14.4v3.8h-14.4v12.6h16.5v3.8Z"/>
      <path class="st8" d="M879.1,968.2h-5.6l-6.7-10.1c-.6-.9-1.2-1.7-1.8-2.4-.6-.7-1.2-1.2-1.8-1.6-.6-.4-1.3-.7-1.9-.9-.7-.2-1.5-.3-2.3-.3h-3.8v15.3h-4.7v-35.9h11.9c1.7,0,3.3.2,4.8.6,1.5.4,2.8,1,3.8,1.8,1.1.8,1.9,1.8,2.5,3,.6,1.2.9,2.6.9,4.2s-.2,2.4-.6,3.4c-.4,1-1,2-1.8,2.8-.8.8-1.7,1.5-2.8,2.1-1.1.6-2.3,1-3.7,1.3h0c.7.4,1.2.7,1.7,1,.5.3,1,.7,1.4,1.2.4.5.9,1,1.3,1.6.4.6.9,1.3,1.5,2.1l7.5,10.8ZM855.2,936.1v13h6.3c1.2,0,2.2-.2,3.2-.5,1-.3,1.8-.8,2.6-1.4s1.3-1.3,1.7-2.2c.4-.9.6-1.8.6-2.9,0-1.9-.7-3.4-2.1-4.5-1.4-1.1-3.4-1.6-6-1.6h-6.4Z"/>
      <path class="st28" d="M895,968.2h-4.7v-35.9h4.7v35.9Z"/>
      <path class="st32" d="M932.3,968.2h-21.1v-35.9h20.2v3.8h-15.6v11.9h14.4v3.8h-14.4v12.6h16.5v3.8Z"/>
      <path class="st14" d="M977.8,968.2h-5.7l-20.5-28.6c-.5-.7-.9-1.5-1.3-2.3h-.2c.1.8.2,2.4.2,4.9v25.9h-4.7v-35.9h6.1l20,28.1c.8,1.2,1.4,2,1.6,2.4h.1c-.2-1-.3-2.8-.3-5.3v-25.3h4.7v35.9Z"/>
      <path class="st39" d="M1021,966.7c-2.9,1.4-6.6,2.1-11,2.1s-10.2-1.6-13.6-4.9c-3.4-3.3-5.1-7.6-5.1-12.9s1.9-10.4,5.8-13.9c3.8-3.5,8.7-5.3,14.6-5.3s6.9.5,9.4,1.5v4.5c-2.9-1.4-6-2.2-9.4-2.2s-8.3,1.4-11.1,4.1c-2.8,2.8-4.3,6.4-4.3,11s1.3,7.9,4,10.4c2.7,2.6,6.1,3.9,10.5,3.9s7.5-.8,10.4-2.4v4.1Z"/>
      <path class="st30" d="M1056,968.2h-21.1v-35.9h20.2v3.8h-15.6v11.9h14.4v3.8h-14.4v12.6h16.5v3.8Z"/>
    </g>
    <g>
      <path class="st1" d="M152.2,891h-21.7l-6.3-17.7h-31.4l-6.2,17.7h-21.6l32.1-79.5h23.6l31.4,79.5ZM119.7,859.5l-9.5-26.7c-.7-2-1.2-4.4-1.5-7.1h-.5c-.2,2.3-.7,4.6-1.5,6.9l-9.6,26.9h22.6Z"/>
      <path class="st13" d="M245.6,856.5c0,23.9-12.4,35.8-37.1,35.8s-36-11.7-36-35v-45.9h20v46.1c0,12.9,5.6,19.3,16.7,19.3s16.4-6.2,16.4-18.6v-46.8h19.9v45.1Z"/>
      <path class="st18" d="M277.5,891v-79.5h31.3c31.4,0,47,12.9,47,38.7s-4.3,22.3-12.8,29.6c-8.6,7.4-20,11.1-34.2,11.1h-31.3ZM297.4,826.1v50.4h9.9c8.6,0,15.4-2.3,20.3-7,4.9-4.7,7.4-11,7.4-19s-2.4-13.5-7.3-17.9c-4.9-4.3-11.7-6.5-20.5-6.5h-9.7Z"/>
      <path class="st23" d="M403,891h-19.9v-79.5h19.9v79.5Z"/>
      <path class="st3" d="M473,892.3c-12.6,0-22.9-3.7-30.9-11.1-8-7.4-11.9-17.1-11.9-29s4-22.7,12.1-30.5c8.1-7.8,18.8-11.6,32.1-11.6s22.8,3.7,30.6,11.1c7.8,7.4,11.7,17.2,11.7,29.4s-4,22.6-12.1,30.2c-8.1,7.6-18.6,11.5-31.6,11.5ZM473.8,825.6c-7,0-12.5,2.4-16.6,7.1-4.1,4.7-6.2,10.9-6.2,18.7s2.1,14.1,6.2,18.7c4.1,4.6,9.5,6.9,16.1,6.9s12.3-2.2,16.3-6.7c4-4.5,6-10.6,6-18.5s-1.9-14.6-5.8-19.2c-3.9-4.6-9.2-6.9-16-6.9Z"/>
      <path class="st21" d="M660.9,891h-11.5l-9.4-22.3h-37.4l-8.8,22.3h-11.5l33.9-79.5h10.7l34,79.5ZM636.7,860.3l-13.9-33.9c-.5-1.1-.9-2.9-1.4-5.3h-.2c-.4,2.3-.9,4-1.4,5.3l-13.7,33.9h30.6Z"/>
      <path class="st12" d="M749.4,858.8c0,22.3-11.2,33.5-33.6,33.5s-32.1-10.7-32.1-32.2v-48.6h10.3v48c0,16.3,7.6,24.4,22.9,24.4s22.1-7.9,22.1-23.6v-48.8h10.3v47.3Z"/>
      <path class="st37" d="M847.4,891h-12.3l-14.8-22.3c-1.4-2.1-2.7-3.8-3.9-5.3s-2.6-2.7-3.9-3.6c-1.3-.9-2.8-1.6-4.3-2-1.5-.4-3.3-.6-5.2-.6h-8.5v33.8h-10.3v-79.5h26.4c3.9,0,7.4.4,10.7,1.3,3.3.9,6.1,2.2,8.5,4,2.4,1.8,4.3,4,5.6,6.6s2,5.7,2,9.3-.5,5.3-1.4,7.6c-.9,2.3-2.2,4.4-3.9,6.2-1.7,1.8-3.8,3.4-6.2,4.6-2.4,1.3-5.1,2.3-8.1,3v.2c1.5.6,2.8,1.3,3.8,2,1.1.8,2.1,1.7,3.1,2.7,1,1,2,2.2,2.9,3.5,1,1.3,2,2.8,3.2,4.6l16.6,23.9ZM794.4,819.9v28.8h14c2.6,0,5-.4,7.2-1.1,2.2-.7,4.1-1.7,5.7-3,1.6-1.3,2.9-2.9,3.8-4.8.9-1.9,1.4-4,1.4-6.4,0-4.2-1.5-7.6-4.6-9.9-3.1-2.4-7.5-3.6-13.3-3.6h-14.2Z"/>
      <path class="st35" d="M906.5,892.3c-12.5,0-22.5-3.7-30.1-11.1-7.5-7.4-11.3-17.1-11.3-29s3.8-23,11.5-30.6c7.7-7.6,18.1-11.4,31.3-11.4s22,3.7,29.5,11.1c7.4,7.4,11.2,17.1,11.2,29s-3.8,23.2-11.5,30.8c-7.6,7.5-17.9,11.3-30.7,11.3ZM907.2,818.6c-9.3,0-16.8,3-22.6,9-5.8,6-8.7,13.9-8.7,23.7s2.8,17.7,8.5,23.6c5.6,6,13,8.9,22.1,8.9s17.3-2.8,22.9-8.5c5.6-5.7,8.4-13.7,8.4-23.9s-2.7-18.6-8.1-24.3-12.9-8.6-22.4-8.6Z"/>
      <path class="st31" d="M1041.9,891h-12.3l-14.8-22.3c-1.4-2.1-2.7-3.8-3.9-5.3s-2.6-2.7-3.9-3.6c-1.3-.9-2.8-1.6-4.3-2-1.5-.4-3.3-.6-5.2-.6h-8.5v33.8h-10.3v-79.5h26.4c3.9,0,7.4.4,10.7,1.3,3.3.9,6.1,2.2,8.5,4,2.4,1.8,4.3,4,5.6,6.6s2,5.7,2,9.3-.5,5.3-1.4,7.6c-.9,2.3-2.2,4.4-3.9,6.2-1.7,1.8-3.8,3.4-6.2,4.6-2.4,1.3-5.1,2.3-8.1,3v.2c1.5.6,2.8,1.3,3.8,2,1.1.8,2.1,1.7,3.1,2.7,1,1,2,2.2,2.9,3.5,1,1.3,2,2.8,3.2,4.6l16.6,23.9ZM988.9,819.9v28.8h14c2.6,0,5-.4,7.2-1.1,2.2-.7,4.1-1.7,5.7-3,1.6-1.3,2.9-2.9,3.8-4.8.9-1.9,1.4-4,1.4-6.4,0-4.2-1.5-7.6-4.6-9.9-3.1-2.4-7.5-3.6-13.3-3.6h-14.2Z"/>
      <path class="st36" d="M1135,891h-11.5l-9.4-22.3h-37.4l-8.8,22.3h-11.5l33.9-79.5h10.7l34,79.5ZM1110.8,860.3l-13.9-33.9c-.5-1.1-.9-2.9-1.4-5.3h-.2c-.4,2.3-.9,4-1.4,5.3l-13.7,33.9h30.6Z"/>
    </g>
  </g>
</svg>