<?xml version="1.0" encoding="UTF-8"?>
<svg id="_圖層_1" data-name="圖層_1" xmlns="http://www.w3.org/2000/svg" version="1.1" xmlns:xlink="http://www.w3.org/1999/xlink" viewBox="0 0 77 47">
  <!-- Generator: Adobe Illustrator 29.8.1, SVG Export Plug-In . SVG Version: 2.1.1 Build 2)  -->
  <defs>
    <style>
      .st0 {
        fill: url(#_未命名漸層_113);
      }

      .st1 {
        fill: url(#_未命名漸層_11);
      }

      .st2 {
        fill: url(#_未命名漸層_115);
      }

      .st3 {
        fill: none;
      }

      .st4 {
        fill: url(#_未命名漸層_116);
      }

      .st5 {
        fill: url(#_未命名漸層_111);
      }

      .st6 {
        fill: url(#_未命名漸層_112);
      }

      .st7 {
        fill: url(#_未命名漸層_114);
      }
    </style>
    <linearGradient id="_未命名漸層_11" data-name="未命名漸層 11" x1="27.9" y1="45.5" x2="49.2" y2="24.3" gradientUnits="userSpaceOnUse">
      <stop offset="0" stop-color="#39a2ca"/>
      <stop offset="1" stop-color="aqua"/>
    </linearGradient>
    <linearGradient id="_未命名漸層_111" data-name="未命名漸層 11" x1="24.5" y1="32.4" x2="46.4" y2="10.5" xlink:href="#_未命名漸層_11"/>
    <linearGradient id="_未命名漸層_112" data-name="未命名漸層 11" x1="31.2" y1="32.7" x2="52" y2="11.8" xlink:href="#_未命名漸層_11"/>
    <linearGradient id="_未命名漸層_113" data-name="未命名漸層 11" x1="19.7" y1="33.7" x2="27.6" y2="25.8" xlink:href="#_未命名漸層_11"/>
    <linearGradient id="_未命名漸層_114" data-name="未命名漸層 11" x1="14.9" y1="33.5" x2="22.3" y2="26" xlink:href="#_未命名漸層_11"/>
    <linearGradient id="_未命名漸層_115" data-name="未命名漸層 11" x1="54.7" y1="33.4" x2="62.1" y2="26" xlink:href="#_未命名漸層_11"/>
    <linearGradient id="_未命名漸層_116" data-name="未命名漸層 11" x1="47.9" y1="31.3" x2="53.6" y2="25.6" xlink:href="#_未命名漸層_11"/>
  </defs>
  <path class="st3" d="M6.9,0C-2.3,13.2-2.3,33.6,6.9,46.8h6.2C3.9,33.6,3.9,13.2,13.1,0h-6.2ZM69.3,0h-6.2c9.2,13.2,9.3,33.6,0,46.8h6.2c9.2-13.2,9.2-33.6,0-46.8"/>
  <g>
    <path class="st1" d="M38.6,13.7l5.6,11-1,.7h-.2c0,0-4.7-8.5-4.7-8.5l-11.2,21.7,2.5-1.1,1.5-2.7c3.9-.7,7.7-1.9,11.1-3.9l3.9-2.7,6.8,13.3-6.7-2.8-3.5-6.3c-3.3,1.8-6.9,3.1-10.6,3.8l-1.5,2.6-6.7,2.8,14.6-27.8ZM45.7,30.4l-1.6,1,3.3,6.1,2.6,1.1-4.3-8.2Z"/>
    <path class="st5" d="M26.3,22.5c-.1-.7-.7-1.2-1.4-1.4s-.7.1-.7-.2c.1-2,1.5-4.9,2.7-6.5,5.3-7.2,16.2-7.8,22.2-1.1,2.5,2.8,2.5,5.1.8,8.3-3.3,6.3-11,10.3-17.9,11.4l6.3-12.2.3.2,2.9,5.6-1.2.8c-.3-.2-1.5-2.8-1.8-3.3s0-.2-.2-.1l-3.5,6.8c0,.2,0,.2.2.1,5.3-1.2,12.7-6.1,14.3-11.6s.2-3-1-4.5c-6.8-8.1-19.9-4.9-22.4,5.2h0c.9.6,1.6,1.4,1.7,2.4.3,2.9-.3,6.1,0,9l-1.5,2.9v-11.6Z"/>
    <path class="st6" d="M52.5,36.8v-14.2l2.1.9c0-7.4-4.8-14-11.9-15.9-9.8-2.6-19.2,4.2-20.3,14l-1.4.9c0-3,1-6.1,2.6-8.6C32.7-.9,54.9,5,56.1,22.3c0,.6-.1,1.7,0,2.2s.9,1.2,1.2,1.6c2.4,4.2,0,9.7-4.8,10.7ZM54,34.7c3.7-2.3,3.6-7.6,0-9.9v9.9Z"/>
    <path class="st0" d="M24.5,36.8c-7.6-1.8-7.5-12.4,0-14.2v14.2ZM23.1,24.8c-.5,0-1.1.6-1.4,1-2.3,2.7-1.7,7,1.4,8.8v-9.8Z"/>
    <path class="st7" d="M18.7,37.1c-.2.1-1-.9-1.1-1.1-3.2-4.2-2.7-10.1,1-13.8l1,1c-.3.5-.7.9-1,1.4-2.3,3.5-2,8.4,1.1,11.3l-.8,1.1Z"/>
    <path class="st2" d="M58.4,22.3c4,3.9,4.1,11,0,14.9-.2-.2-1-.8-.9-1.1,3.3-3.6,3.2-9.1,0-12.6l.9-1.1Z"/>
    <path class="st4" d="M50.8,34.1c-.2-.2-.4-.6-.6-.9-.3-.5-.9-1.6-.9-2.1-.2-2,.2-4.3,0-6.3l1.5-2.2v11.4Z"/>
  </g>
</svg>